<svg width="644" height="174" viewBox="0 0 644 174" fill="none" xmlns="http://www.w3.org/2000/svg">
<path d="M139.028 168V151.152H148.986C150.234 151.152 151.317 151.334 152.236 151.698C153.155 152.045 153.865 152.591 154.368 153.336C154.871 154.064 155.122 155 155.122 156.144C155.122 156.907 154.992 157.565 154.732 158.12C154.472 158.657 154.108 159.099 153.64 159.446C153.172 159.793 152.626 160.061 152.002 160.252C151.395 160.443 150.745 160.564 150.052 160.616L149.792 160.434C150.901 160.451 151.82 160.555 152.548 160.746C153.276 160.919 153.831 161.257 154.212 161.76C154.593 162.245 154.784 162.965 154.784 163.918V168H151.846V164.074C151.846 163.415 151.725 162.904 151.482 162.54C151.257 162.159 150.858 161.899 150.286 161.76C149.731 161.604 148.934 161.526 147.894 161.526H141.992V168H139.028ZM141.992 159.108H148.986C150.026 159.108 150.815 158.848 151.352 158.328C151.889 157.808 152.158 157.123 152.158 156.274C152.158 155.459 151.889 154.835 151.352 154.402C150.815 153.951 150.026 153.726 148.986 153.726H141.992V159.108Z" fill="black"/>
<path d="M169.08 163.736H171.862C171.724 164.62 171.377 165.409 170.822 166.102C170.285 166.778 169.548 167.315 168.612 167.714C167.676 168.095 166.558 168.286 165.258 168.286C163.785 168.286 162.468 168.017 161.306 167.48C160.145 166.925 159.235 166.145 158.576 165.14C157.918 164.135 157.588 162.939 157.588 161.552C157.588 160.183 157.909 158.987 158.55 157.964C159.192 156.941 160.076 156.153 161.202 155.598C162.346 155.043 163.664 154.766 165.154 154.766C166.697 154.766 167.98 155.043 169.002 155.598C170.042 156.135 170.814 156.95 171.316 158.042C171.819 159.117 172.027 160.477 171.94 162.124H160.526C160.613 162.852 160.847 163.511 161.228 164.1C161.627 164.672 162.164 165.123 162.84 165.452C163.516 165.764 164.305 165.92 165.206 165.92C166.212 165.92 167.052 165.721 167.728 165.322C168.422 164.923 168.872 164.395 169.08 163.736ZM165.076 157.106C163.898 157.106 162.927 157.401 162.164 157.99C161.402 158.562 160.908 159.299 160.682 160.2H169.028C168.959 159.229 168.569 158.475 167.858 157.938C167.148 157.383 166.22 157.106 165.076 157.106Z" fill="black"/>
<path d="M174.748 155.052H177.66V173.2H174.748V155.052ZM177.894 149.566V152.348H174.436V149.566H177.894Z" fill="black"/>
<path d="M187.955 168.286C186.516 168.286 185.225 168.026 184.081 167.506C182.937 166.986 182.036 166.223 181.377 165.218C180.718 164.213 180.389 162.991 180.389 161.552C180.389 160.131 180.718 158.917 181.377 157.912C182.036 156.889 182.937 156.109 184.081 155.572C185.225 155.035 186.516 154.766 187.955 154.766C189.394 154.766 190.676 155.035 191.803 155.572C192.93 156.109 193.814 156.889 194.455 157.912C195.114 158.917 195.443 160.131 195.443 161.552C195.443 162.991 195.114 164.213 194.455 165.218C193.814 166.223 192.93 166.986 191.803 167.506C190.676 168.026 189.394 168.286 187.955 168.286ZM187.955 165.92C188.787 165.92 189.55 165.755 190.243 165.426C190.936 165.097 191.482 164.603 191.881 163.944C192.297 163.285 192.505 162.488 192.505 161.552C192.505 160.616 192.297 159.819 191.881 159.16C191.482 158.501 190.936 157.999 190.243 157.652C189.567 157.288 188.804 157.106 187.955 157.106C187.106 157.106 186.334 157.279 185.641 157.626C184.948 157.973 184.384 158.475 183.951 159.134C183.535 159.793 183.327 160.599 183.327 161.552C183.327 162.488 183.535 163.285 183.951 163.944C184.367 164.603 184.922 165.097 185.615 165.426C186.326 165.755 187.106 165.92 187.955 165.92Z" fill="black"/>
<path d="M201.406 149.566V152.348H197.948V149.566H201.406ZM198.208 155.052H201.12V168H198.208V155.052Z" fill="black"/>
<path d="M210.349 165.998C209.136 165.998 208.035 165.781 207.047 165.348C206.076 164.915 205.305 164.282 204.733 163.45C204.178 162.618 203.901 161.621 203.901 160.46C203.901 159.299 204.17 158.293 204.707 157.444C205.262 156.595 206.024 155.936 206.995 155.468C207.983 155 209.101 154.766 210.349 154.766C210.713 154.766 211.06 154.792 211.389 154.844C211.736 154.896 212.065 154.965 212.377 155.052L218.435 155.078V157.496C217.603 157.513 216.762 157.401 215.913 157.158C215.081 156.898 214.344 156.629 213.703 156.352L213.625 156.196C214.214 156.491 214.743 156.855 215.211 157.288C215.696 157.704 216.078 158.181 216.355 158.718C216.632 159.255 216.771 159.862 216.771 160.538C216.771 161.682 216.494 162.661 215.939 163.476C215.402 164.291 214.648 164.915 213.677 165.348C212.724 165.781 211.614 165.998 210.349 165.998ZM214.509 173.278V172.68C214.509 171.831 214.258 171.233 213.755 170.886C213.252 170.539 212.55 170.366 211.649 170.366H208.139C207.446 170.366 206.848 170.305 206.345 170.184C205.86 170.08 205.47 169.915 205.175 169.69C204.88 169.482 204.664 169.231 204.525 168.936C204.386 168.659 204.317 168.347 204.317 168C204.317 167.307 204.525 166.787 204.941 166.44C205.374 166.093 205.938 165.868 206.631 165.764C207.342 165.66 208.087 165.643 208.867 165.712L210.349 165.998C209.326 166.033 208.546 166.128 208.009 166.284C207.489 166.423 207.229 166.709 207.229 167.142C207.229 167.402 207.333 167.61 207.541 167.766C207.749 167.922 208.044 168 208.425 168H212.117C213.174 168 214.102 168.121 214.899 168.364C215.696 168.624 216.312 169.049 216.745 169.638C217.196 170.245 217.421 171.068 217.421 172.108V173.278H214.509ZM210.349 163.736C211.042 163.736 211.658 163.606 212.195 163.346C212.732 163.086 213.157 162.713 213.469 162.228C213.781 161.743 213.937 161.153 213.937 160.46C213.937 159.767 213.781 159.169 213.469 158.666C213.157 158.163 212.732 157.782 212.195 157.522C211.658 157.262 211.042 157.132 210.349 157.132C209.673 157.132 209.058 157.262 208.503 157.522C207.966 157.782 207.541 158.163 207.229 158.666C206.917 159.151 206.761 159.749 206.761 160.46C206.761 161.153 206.917 161.743 207.229 162.228C207.541 162.713 207.966 163.086 208.503 163.346C209.04 163.606 209.656 163.736 210.349 163.736Z" fill="black"/>
<path d="M220.751 155.052H223.637V168H220.751V155.052ZM229.097 154.766C229.842 154.766 230.527 154.87 231.151 155.078C231.792 155.286 232.338 155.607 232.789 156.04C233.257 156.456 233.612 156.976 233.855 157.6C234.115 158.224 234.245 158.961 234.245 159.81V168H231.359V160.382C231.359 159.325 231.099 158.545 230.579 158.042C230.076 157.522 229.279 157.262 228.187 157.262C227.355 157.262 226.592 157.444 225.899 157.808C225.223 158.155 224.668 158.614 224.235 159.186C223.801 159.741 223.55 160.356 223.481 161.032L223.455 159.628C223.541 158.987 223.732 158.38 224.027 157.808C224.321 157.219 224.711 156.699 225.197 156.248C225.682 155.78 226.254 155.416 226.913 155.156C227.571 154.896 228.299 154.766 229.097 154.766Z" fill="black"/>
<path d="M248.248 163.736H251.03C250.892 164.62 250.545 165.409 249.99 166.102C249.453 166.778 248.716 167.315 247.78 167.714C246.844 168.095 245.726 168.286 244.426 168.286C242.953 168.286 241.636 168.017 240.474 167.48C239.313 166.925 238.403 166.145 237.744 165.14C237.086 164.135 236.756 162.939 236.756 161.552C236.756 160.183 237.077 158.987 237.718 157.964C238.36 156.941 239.244 156.153 240.37 155.598C241.514 155.043 242.832 154.766 244.322 154.766C245.865 154.766 247.148 155.043 248.17 155.598C249.21 156.135 249.982 156.95 250.484 158.042C250.987 159.117 251.195 160.477 251.108 162.124H239.694C239.781 162.852 240.015 163.511 240.396 164.1C240.795 164.672 241.332 165.123 242.008 165.452C242.684 165.764 243.473 165.92 244.374 165.92C245.38 165.92 246.22 165.721 246.896 165.322C247.59 164.923 248.04 164.395 248.248 163.736ZM244.244 157.106C243.066 157.106 242.095 157.401 241.332 157.99C240.57 158.562 240.076 159.299 239.85 160.2H248.196C248.127 159.229 247.737 158.475 247.026 157.938C246.316 157.383 245.388 157.106 244.244 157.106Z" fill="black"/>
<path d="M265.257 157.392L255.819 166.57L255.481 165.66H265.413V168H253.323V165.66L262.813 156.508L263.177 157.392H253.323V155.052H265.257V157.392Z" fill="black"/>
<path d="M274.712 149.852H277.598V168H274.712V149.852Z" fill="black"/>
<path d="M291.92 163.736H294.702C294.564 164.62 294.217 165.409 293.662 166.102C293.125 166.778 292.388 167.315 291.452 167.714C290.516 168.095 289.398 168.286 288.098 168.286C286.625 168.286 285.308 168.017 284.146 167.48C282.985 166.925 282.075 166.145 281.416 165.14C280.758 164.135 280.428 162.939 280.428 161.552C280.428 160.183 280.749 158.987 281.39 157.964C282.032 156.941 282.916 156.153 284.042 155.598C285.186 155.043 286.504 154.766 287.994 154.766C289.537 154.766 290.82 155.043 291.842 155.598C292.882 156.135 293.654 156.95 294.156 158.042C294.659 159.117 294.867 160.477 294.78 162.124H283.366C283.453 162.852 283.687 163.511 284.068 164.1C284.467 164.672 285.004 165.123 285.68 165.452C286.356 165.764 287.145 165.92 288.046 165.92C289.052 165.92 289.892 165.721 290.568 165.322C291.262 164.923 291.712 164.395 291.92 163.736ZM287.916 157.106C286.738 157.106 285.767 157.401 285.004 157.99C284.242 158.562 283.748 159.299 283.522 160.2H291.868C291.799 159.229 291.409 158.475 290.698 157.938C289.988 157.383 289.06 157.106 287.916 157.106Z" fill="black"/>
<path d="M302.436 155.208H311.822V157.548H302.436V155.208ZM309.898 149.852H312.03V152.348H310.418C309.933 152.331 309.508 152.383 309.144 152.504C308.798 152.625 308.52 152.851 308.312 153.18C308.122 153.509 308.026 153.977 308.026 154.584V168H305.114V154.324C305.114 153.284 305.305 152.435 305.686 151.776C306.068 151.117 306.614 150.632 307.324 150.32C308.052 150.008 308.91 149.852 309.898 149.852Z" fill="black"/>
<path d="M327.479 168H324.593V155.052H327.479V168ZM324.749 161.838L324.775 162.67C324.74 162.895 324.662 163.233 324.541 163.684C324.437 164.135 324.255 164.629 323.995 165.166C323.752 165.686 323.423 166.189 323.007 166.674C322.608 167.142 322.106 167.532 321.499 167.844C320.892 168.139 320.156 168.286 319.289 168.286C318.665 168.286 318.032 168.199 317.391 168.026C316.767 167.87 316.195 167.601 315.675 167.22C315.172 166.839 314.765 166.319 314.453 165.66C314.141 165.001 313.985 164.169 313.985 163.164V155.052H316.871V162.618C316.871 163.433 317.001 164.074 317.261 164.542C317.538 164.993 317.92 165.313 318.405 165.504C318.89 165.695 319.454 165.79 320.095 165.79C321.014 165.79 321.794 165.582 322.435 165.166C323.076 164.75 323.588 164.239 323.969 163.632C324.368 163.008 324.628 162.41 324.749 161.838Z" fill="black"/>
<path d="M329.757 155.052H338.909V157.418H329.757V155.052ZM332.877 151.568H335.789V168H332.877V151.568Z" fill="black"/>
<path d="M354.672 168H351.786V155.052H354.672V168ZM351.942 161.838L351.968 162.67C351.934 162.895 351.856 163.233 351.734 163.684C351.63 164.135 351.448 164.629 351.188 165.166C350.946 165.686 350.616 166.189 350.2 166.674C349.802 167.142 349.299 167.532 348.692 167.844C348.086 168.139 347.349 168.286 346.482 168.286C345.858 168.286 345.226 168.199 344.584 168.026C343.96 167.87 343.388 167.601 342.868 167.22C342.366 166.839 341.958 166.319 341.646 165.66C341.334 165.001 341.178 164.169 341.178 163.164V155.052H344.064V162.618C344.064 163.433 344.194 164.074 344.454 164.542C344.732 164.993 345.113 165.313 345.598 165.504C346.084 165.695 346.647 165.79 347.288 165.79C348.207 165.79 348.987 165.582 349.628 165.166C350.27 164.75 350.781 164.239 351.162 163.632C351.561 163.008 351.821 162.41 351.942 161.838Z" fill="black"/>
<path d="M357.86 155.052H360.746V168H357.86V155.052ZM365.426 157.522C364.49 157.522 363.684 157.721 363.008 158.12C362.349 158.519 361.821 159.004 361.422 159.576C361.023 160.148 360.746 160.703 360.59 161.24L360.564 159.784C360.581 159.593 360.642 159.307 360.746 158.926C360.85 158.527 361.006 158.094 361.214 157.626C361.439 157.158 361.734 156.707 362.098 156.274C362.479 155.823 362.939 155.459 363.476 155.182C364.031 154.905 364.681 154.766 365.426 154.766V157.522Z" fill="black"/>
<path d="M379.374 168.286C378.178 168.286 377.086 168 376.098 167.428C375.128 166.856 374.356 166.067 373.784 165.062C373.212 164.039 372.926 162.869 372.926 161.552C372.926 160.2 373.204 159.021 373.758 158.016C374.33 156.993 375.093 156.196 376.046 155.624C377.017 155.052 378.126 154.766 379.374 154.766C380.466 154.766 381.385 154.948 382.13 155.312C382.876 155.659 383.465 156.144 383.898 156.768C384.332 157.375 384.644 158.085 384.834 158.9C385.042 159.715 385.146 160.599 385.146 161.552C385.146 162.263 385.042 163.017 384.834 163.814C384.626 164.594 384.297 165.322 383.846 165.998C383.413 166.674 382.824 167.229 382.078 167.662C381.35 168.078 380.449 168.286 379.374 168.286ZM380.258 165.894C381.229 165.894 382.052 165.712 382.728 165.348C383.422 164.967 383.942 164.447 384.288 163.788C384.652 163.129 384.834 162.384 384.834 161.552C384.834 160.633 384.652 159.853 384.288 159.212C383.924 158.553 383.404 158.042 382.728 157.678C382.052 157.314 381.229 157.132 380.258 157.132C378.872 157.132 377.797 157.548 377.034 158.38C376.272 159.195 375.89 160.252 375.89 161.552C375.89 162.401 376.072 163.155 376.436 163.814C376.818 164.473 377.338 164.984 377.996 165.348C378.655 165.712 379.409 165.894 380.258 165.894ZM384.834 149.852H387.746V168H385.042C385.008 167.601 384.964 167.107 384.912 166.518C384.86 165.929 384.834 165.4 384.834 164.932V149.852Z" fill="black"/>
<path d="M402.242 163.736H405.024C404.886 164.62 404.539 165.409 403.984 166.102C403.447 166.778 402.71 167.315 401.774 167.714C400.838 168.095 399.72 168.286 398.42 168.286C396.947 168.286 395.63 168.017 394.468 167.48C393.307 166.925 392.397 166.145 391.738 165.14C391.08 164.135 390.75 162.939 390.75 161.552C390.75 160.183 391.071 158.987 391.712 157.964C392.354 156.941 393.238 156.153 394.364 155.598C395.508 155.043 396.826 154.766 398.316 154.766C399.859 154.766 401.142 155.043 402.164 155.598C403.204 156.135 403.976 156.95 404.478 158.042C404.981 159.117 405.189 160.477 405.102 162.124H393.688C393.775 162.852 394.009 163.511 394.39 164.1C394.789 164.672 395.326 165.123 396.002 165.452C396.678 165.764 397.467 165.92 398.368 165.92C399.374 165.92 400.214 165.721 400.89 165.322C401.584 164.923 402.034 164.395 402.242 163.736ZM398.238 157.106C397.06 157.106 396.089 157.401 395.326 157.99C394.564 158.562 394.07 159.299 393.844 160.2H402.19C402.121 159.229 401.731 158.475 401.02 157.938C400.31 157.383 399.382 157.106 398.238 157.106Z" fill="black"/>
<path d="M413.929 149.852H416.815V168H413.929V149.852Z" fill="black"/>
<path d="M426.093 168.286C424.914 168.286 423.831 168 422.843 167.428C421.872 166.856 421.092 166.067 420.503 165.062C419.931 164.039 419.645 162.869 419.645 161.552C419.645 160.2 419.94 159.021 420.529 158.016C421.118 156.993 421.916 156.196 422.921 155.624C423.926 155.052 425.053 154.766 426.301 154.766C427.688 154.766 428.788 155.069 429.603 155.676C430.418 156.283 430.998 157.097 431.345 158.12C431.692 159.143 431.865 160.287 431.865 161.552C431.865 162.263 431.761 163.017 431.553 163.814C431.345 164.594 431.016 165.322 430.565 165.998C430.132 166.674 429.542 167.229 428.797 167.662C428.069 168.078 427.168 168.286 426.093 168.286ZM426.977 165.894C427.948 165.894 428.771 165.712 429.447 165.348C430.14 164.967 430.66 164.447 431.007 163.788C431.371 163.129 431.553 162.384 431.553 161.552C431.553 160.633 431.371 159.853 431.007 159.212C430.643 158.553 430.123 158.051 429.447 157.704C428.771 157.34 427.948 157.158 426.977 157.158C425.59 157.158 424.516 157.565 423.753 158.38C422.99 159.195 422.609 160.252 422.609 161.552C422.609 162.401 422.791 163.155 423.155 163.814C423.536 164.473 424.056 164.984 424.715 165.348C425.374 165.712 426.128 165.894 426.977 165.894ZM431.553 155.052H434.465V168H431.761C431.761 168 431.744 167.835 431.709 167.506C431.674 167.177 431.64 166.778 431.605 166.31C431.57 165.825 431.553 165.365 431.553 164.932V155.052Z" fill="black"/>
<path d="M457.566 162.982C457.462 164.091 457.106 165.045 456.5 165.842C455.893 166.639 455.078 167.246 454.056 167.662C453.05 168.078 451.889 168.286 450.572 168.286C449.15 168.286 447.859 168.026 446.698 167.506C445.554 166.986 444.644 166.223 443.968 165.218C443.292 164.213 442.954 162.991 442.954 161.552C442.954 160.113 443.292 158.891 443.968 157.886C444.644 156.881 445.554 156.109 446.698 155.572C447.859 155.035 449.15 154.766 450.572 154.766C451.889 154.766 453.05 154.983 454.056 155.416C455.061 155.832 455.867 156.43 456.474 157.21C457.08 157.99 457.436 158.935 457.54 160.044H454.888C454.593 159.125 454.056 158.415 453.276 157.912C452.513 157.392 451.612 157.132 450.572 157.132C449.722 157.132 448.942 157.305 448.232 157.652C447.521 157.981 446.949 158.475 446.516 159.134C446.1 159.775 445.892 160.581 445.892 161.552C445.892 162.505 446.1 163.311 446.516 163.97C446.949 164.629 447.521 165.123 448.232 165.452C448.942 165.764 449.722 165.92 450.572 165.92C451.716 165.92 452.652 165.669 453.38 165.166C454.125 164.646 454.636 163.918 454.914 162.982H457.566Z" fill="black"/>
<path d="M466.998 168.286C465.559 168.286 464.268 168.026 463.124 167.506C461.98 166.986 461.079 166.223 460.42 165.218C459.761 164.213 459.432 162.991 459.432 161.552C459.432 160.131 459.761 158.917 460.42 157.912C461.079 156.889 461.98 156.109 463.124 155.572C464.268 155.035 465.559 154.766 466.998 154.766C468.437 154.766 469.719 155.035 470.846 155.572C471.973 156.109 472.857 156.889 473.498 157.912C474.157 158.917 474.486 160.131 474.486 161.552C474.486 162.991 474.157 164.213 473.498 165.218C472.857 166.223 471.973 166.986 470.846 167.506C469.719 168.026 468.437 168.286 466.998 168.286ZM466.998 165.92C467.83 165.92 468.593 165.755 469.286 165.426C469.979 165.097 470.525 164.603 470.924 163.944C471.34 163.285 471.548 162.488 471.548 161.552C471.548 160.616 471.34 159.819 470.924 159.16C470.525 158.501 469.979 157.999 469.286 157.652C468.61 157.288 467.847 157.106 466.998 157.106C466.149 157.106 465.377 157.279 464.684 157.626C463.991 157.973 463.427 158.475 462.994 159.134C462.578 159.793 462.37 160.599 462.37 161.552C462.37 162.488 462.578 163.285 462.994 163.944C463.41 164.603 463.965 165.097 464.658 165.426C465.369 165.755 466.149 165.92 466.998 165.92Z" fill="black"/>
<path d="M477.329 149.852H480.215V168H477.329V149.852Z" fill="black"/>
<path d="M483.981 149.852H486.867V168H483.981V149.852Z" fill="black"/>
<path d="M496.146 168.286C494.967 168.286 493.884 168 492.896 167.428C491.925 166.856 491.145 166.067 490.556 165.062C489.984 164.039 489.698 162.869 489.698 161.552C489.698 160.2 489.992 159.021 490.582 158.016C491.171 156.993 491.968 156.196 492.974 155.624C493.979 155.052 495.106 154.766 496.354 154.766C497.74 154.766 498.841 155.069 499.656 155.676C500.47 156.283 501.051 157.097 501.398 158.12C501.744 159.143 501.918 160.287 501.918 161.552C501.918 162.263 501.814 163.017 501.606 163.814C501.398 164.594 501.068 165.322 500.618 165.998C500.184 166.674 499.595 167.229 498.85 167.662C498.122 168.078 497.22 168.286 496.146 168.286ZM497.03 165.894C498 165.894 498.824 165.712 499.5 165.348C500.193 164.967 500.713 164.447 501.06 163.788C501.424 163.129 501.606 162.384 501.606 161.552C501.606 160.633 501.424 159.853 501.06 159.212C500.696 158.553 500.176 158.051 499.5 157.704C498.824 157.34 498 157.158 497.03 157.158C495.643 157.158 494.568 157.565 493.806 158.38C493.043 159.195 492.662 160.252 492.662 161.552C492.662 162.401 492.844 163.155 493.208 163.814C493.589 164.473 494.109 164.984 494.768 165.348C495.426 165.712 496.18 165.894 497.03 165.894ZM501.606 155.052H504.518V168H501.814C501.814 168 501.796 167.835 501.762 167.506C501.727 167.177 501.692 166.778 501.658 166.31C501.623 165.825 501.606 165.365 501.606 164.932V155.052Z" fill="black"/>
<path d="M516.25 168.286C515.176 168.286 514.266 168.078 513.52 167.662C512.792 167.229 512.203 166.674 511.752 165.998C511.319 165.322 510.998 164.594 510.79 163.814C510.6 163.017 510.504 162.263 510.504 161.552C510.504 160.599 510.6 159.715 510.79 158.9C510.981 158.085 511.293 157.375 511.726 156.768C512.177 156.144 512.766 155.659 513.494 155.312C514.24 154.948 515.158 154.766 516.25 154.766C517.498 154.766 518.599 155.052 519.552 155.624C520.523 156.196 521.286 156.993 521.84 158.016C522.412 159.021 522.698 160.2 522.698 161.552C522.698 162.869 522.412 164.039 521.84 165.062C521.268 166.067 520.497 166.856 519.526 167.428C518.556 168 517.464 168.286 516.25 168.286ZM515.366 165.894C516.25 165.894 517.013 165.712 517.654 165.348C518.313 164.984 518.824 164.473 519.188 163.814C519.552 163.155 519.734 162.401 519.734 161.552C519.734 160.252 519.353 159.195 518.59 158.38C517.828 157.548 516.753 157.132 515.366 157.132C514.413 157.132 513.59 157.314 512.896 157.678C512.22 158.042 511.7 158.553 511.336 159.212C510.99 159.853 510.816 160.633 510.816 161.552C510.816 162.384 510.99 163.129 511.336 163.788C511.7 164.447 512.22 164.967 512.896 165.348C513.572 165.712 514.396 165.894 515.366 165.894ZM510.816 149.852V164.932C510.816 165.4 510.79 165.929 510.738 166.518C510.686 167.107 510.634 167.601 510.582 168H507.904V149.852H510.816Z" fill="black"/>
<path d="M532.125 168.286C530.686 168.286 529.395 168.026 528.251 167.506C527.107 166.986 526.206 166.223 525.547 165.218C524.888 164.213 524.559 162.991 524.559 161.552C524.559 160.131 524.888 158.917 525.547 157.912C526.206 156.889 527.107 156.109 528.251 155.572C529.395 155.035 530.686 154.766 532.125 154.766C533.564 154.766 534.846 155.035 535.973 155.572C537.1 156.109 537.984 156.889 538.625 157.912C539.284 158.917 539.613 160.131 539.613 161.552C539.613 162.991 539.284 164.213 538.625 165.218C537.984 166.223 537.1 166.986 535.973 167.506C534.846 168.026 533.564 168.286 532.125 168.286ZM532.125 165.92C532.957 165.92 533.72 165.755 534.413 165.426C535.106 165.097 535.652 164.603 536.051 163.944C536.467 163.285 536.675 162.488 536.675 161.552C536.675 160.616 536.467 159.819 536.051 159.16C535.652 158.501 535.106 157.999 534.413 157.652C533.737 157.288 532.974 157.106 532.125 157.106C531.276 157.106 530.504 157.279 529.811 157.626C529.118 157.973 528.554 158.475 528.121 159.134C527.705 159.793 527.497 160.599 527.497 161.552C527.497 162.488 527.705 163.285 528.121 163.944C528.537 164.603 529.092 165.097 529.785 165.426C530.496 165.755 531.276 165.92 532.125 165.92Z" fill="black"/>
<path d="M542.196 155.052H545.082V168H542.196V155.052ZM549.762 157.522C548.826 157.522 548.02 157.721 547.344 158.12C546.685 158.519 546.157 159.004 545.758 159.576C545.359 160.148 545.082 160.703 544.926 161.24L544.9 159.784C544.917 159.593 544.978 159.307 545.082 158.926C545.186 158.527 545.342 158.094 545.55 157.626C545.775 157.158 546.07 156.707 546.434 156.274C546.815 155.823 547.275 155.459 547.812 155.182C548.367 154.905 549.017 154.766 549.762 154.766V157.522Z" fill="black"/>
<path d="M557.718 168.286C556.539 168.286 555.456 168 554.468 167.428C553.497 166.856 552.717 166.067 552.128 165.062C551.556 164.039 551.27 162.869 551.27 161.552C551.27 160.2 551.565 159.021 552.154 158.016C552.743 156.993 553.541 156.196 554.546 155.624C555.551 155.052 556.678 154.766 557.926 154.766C559.313 154.766 560.413 155.069 561.228 155.676C562.043 156.283 562.623 157.097 562.97 158.12C563.317 159.143 563.49 160.287 563.49 161.552C563.49 162.263 563.386 163.017 563.178 163.814C562.97 164.594 562.641 165.322 562.19 165.998C561.757 166.674 561.167 167.229 560.422 167.662C559.694 168.078 558.793 168.286 557.718 168.286ZM558.602 165.894C559.573 165.894 560.396 165.712 561.072 165.348C561.765 164.967 562.285 164.447 562.632 163.788C562.996 163.129 563.178 162.384 563.178 161.552C563.178 160.633 562.996 159.853 562.632 159.212C562.268 158.553 561.748 158.051 561.072 157.704C560.396 157.34 559.573 157.158 558.602 157.158C557.215 157.158 556.141 157.565 555.378 158.38C554.615 159.195 554.234 160.252 554.234 161.552C554.234 162.401 554.416 163.155 554.78 163.814C555.161 164.473 555.681 164.984 556.34 165.348C556.999 165.712 557.753 165.894 558.602 165.894ZM563.178 155.052H566.09V168H563.386C563.386 168 563.369 167.835 563.334 167.506C563.299 167.177 563.265 166.778 563.23 166.31C563.195 165.825 563.178 165.365 563.178 164.932V155.052Z" fill="black"/>
<path d="M568.352 155.052H577.504V157.418H568.352V155.052ZM571.472 151.568H574.384V168H571.472V151.568Z" fill="black"/>
<path d="M583.154 149.566V152.348H579.696V149.566H583.154ZM579.956 155.052H582.868V168H579.956V155.052Z" fill="black"/>
<path d="M593.215 168.286C591.776 168.286 590.485 168.026 589.341 167.506C588.197 166.986 587.296 166.223 586.637 165.218C585.978 164.213 585.649 162.991 585.649 161.552C585.649 160.131 585.978 158.917 586.637 157.912C587.296 156.889 588.197 156.109 589.341 155.572C590.485 155.035 591.776 154.766 593.215 154.766C594.654 154.766 595.936 155.035 597.063 155.572C598.19 156.109 599.074 156.889 599.715 157.912C600.374 158.917 600.703 160.131 600.703 161.552C600.703 162.991 600.374 164.213 599.715 165.218C599.074 166.223 598.19 166.986 597.063 167.506C595.936 168.026 594.654 168.286 593.215 168.286ZM593.215 165.92C594.047 165.92 594.81 165.755 595.503 165.426C596.196 165.097 596.742 164.603 597.141 163.944C597.557 163.285 597.765 162.488 597.765 161.552C597.765 160.616 597.557 159.819 597.141 159.16C596.742 158.501 596.196 157.999 595.503 157.652C594.827 157.288 594.064 157.106 593.215 157.106C592.366 157.106 591.594 157.279 590.901 157.626C590.208 157.973 589.644 158.475 589.211 159.134C588.795 159.793 588.587 160.599 588.587 161.552C588.587 162.488 588.795 163.285 589.211 163.944C589.627 164.603 590.182 165.097 590.875 165.426C591.586 165.755 592.366 165.92 593.215 165.92Z" fill="black"/>
<path d="M603.286 155.052H606.172V168H603.286V155.052ZM611.632 154.766C612.377 154.766 613.062 154.87 613.686 155.078C614.327 155.286 614.873 155.607 615.324 156.04C615.792 156.456 616.147 156.976 616.39 157.6C616.65 158.224 616.78 158.961 616.78 159.81V168H613.894V160.382C613.894 159.325 613.634 158.545 613.114 158.042C612.611 157.522 611.814 157.262 610.722 157.262C609.89 157.262 609.127 157.444 608.434 157.808C607.758 158.155 607.203 158.614 606.77 159.186C606.337 159.741 606.085 160.356 606.016 161.032L605.99 159.628C606.077 158.987 606.267 158.38 606.562 157.808C606.857 157.219 607.247 156.699 607.732 156.248C608.217 155.78 608.789 155.416 609.448 155.156C610.107 154.896 610.835 154.766 611.632 154.766Z" fill="black"/>
<path d="M130.04 85.8V73.08H165.56C169.8 73.08 173.16 71.96 175.64 69.72C178.12 67.4 179.36 64.2 179.36 60.12C179.36 55.88 178.12 52.64 175.64 50.4C173.16 48.16 169.8 47.04 165.56 47.04H131.96V111H116V33.36H164.12C168.44 33.36 172.48 33.88 176.24 34.92C180.08 35.96 183.4 37.56 186.2 39.72C189.08 41.88 191.32 44.64 192.92 48C194.52 51.36 195.32 55.4 195.32 60.12C195.32 64.76 194.52 68.72 192.92 72C191.32 75.28 189.08 77.96 186.2 80.04C183.4 82.04 180.08 83.52 176.24 84.48C172.48 85.36 168.44 85.8 164.12 85.8H130.04Z" fill="black"/>
<path d="M235.349 112.32C229.429 112.32 224.029 111.04 219.149 108.48C214.349 105.84 210.509 102.2 207.629 97.56C204.829 92.84 203.429 87.4 203.429 81.24C203.429 74.92 204.869 69.44 207.749 64.8C210.629 60.16 214.509 56.56 219.389 54C224.349 51.36 229.949 50.04 236.189 50.04C243.069 50.04 248.589 51.44 252.749 54.24C256.989 56.96 260.069 60.68 261.989 65.4C263.909 70.12 264.869 75.4 264.869 81.24C264.869 84.76 264.309 88.36 263.189 92.04C262.069 95.64 260.349 99 258.029 102.12C255.709 105.16 252.669 107.64 248.909 109.56C245.149 111.4 240.629 112.32 235.349 112.32ZM240.389 100.32C245.109 100.32 249.189 99.52 252.629 97.92C256.069 96.32 258.709 94.08 260.549 91.2C262.389 88.32 263.309 85 263.309 81.24C263.309 77.16 262.349 73.72 260.429 70.92C258.589 68.04 255.949 65.88 252.509 64.44C249.149 62.92 245.109 62.16 240.389 62.16C233.749 62.16 228.589 63.92 224.909 67.44C221.229 70.88 219.389 75.48 219.389 81.24C219.389 85.08 220.269 88.44 222.029 91.32C223.789 94.12 226.229 96.32 229.349 97.92C232.549 99.52 236.229 100.32 240.389 100.32ZM263.309 51.36H278.909V111H264.389C264.389 111 264.269 110.24 264.029 108.72C263.869 107.12 263.709 105.12 263.549 102.72C263.389 100.32 263.309 97.96 263.309 95.64V51.36Z" fill="black"/>
<path d="M336.468 112.44C331.188 112.44 326.668 111.52 322.908 109.68C319.228 107.76 316.228 105.28 313.908 102.24C311.588 99.12 309.868 95.72 308.748 92.04C307.628 88.36 307.068 84.76 307.068 81.24C307.068 76.84 307.588 72.76 308.628 69C309.748 65.24 311.468 61.96 313.788 59.16C316.108 56.28 319.108 54.04 322.788 52.44C326.548 50.84 331.108 50.04 336.468 50.04C342.468 50.04 347.868 51.36 352.668 54C357.468 56.64 361.268 60.32 364.068 65.04C366.948 69.68 368.388 75.08 368.388 81.24C368.388 87.56 366.948 93.08 364.068 97.8C361.188 102.44 357.348 106.04 352.548 108.6C347.748 111.16 342.388 112.44 336.468 112.44ZM331.428 100.32C335.668 100.32 339.348 99.52 342.468 97.92C345.668 96.32 348.108 94.12 349.788 91.32C351.548 88.44 352.428 85.08 352.428 81.24C352.428 75.48 350.588 70.84 346.908 67.32C343.308 63.8 338.148 62.04 331.428 62.04C327.188 62.04 323.308 62.8 319.788 64.32C316.348 65.84 313.628 68.04 311.628 70.92C309.628 73.72 308.628 77.16 308.628 81.24C308.628 85.08 309.548 88.44 311.388 91.32C313.228 94.12 315.868 96.32 319.308 97.92C322.748 99.52 326.788 100.32 331.428 100.32ZM293.028 51.36H307.908L308.628 67.2V135H293.028V51.36Z" fill="black"/>
<path d="M374.464 51.36H391.024L416.824 108.6L403.384 111L374.464 51.36ZM447.424 51.36L406.144 135H389.944L407.584 102.12L430.744 51.36H447.424Z" fill="black"/>
<path d="M456.505 51.36H472.105V111H456.505V51.36ZM495.025 64.2C490.545 64.2 486.665 65.08 483.385 66.84C480.105 68.52 477.465 70.6 475.465 73.08C473.465 75.56 472.065 77.96 471.265 80.28L471.145 73.68C471.225 72.72 471.545 71.32 472.105 69.48C472.665 67.56 473.505 65.52 474.625 63.36C475.745 61.12 477.225 59 479.065 57C480.905 54.92 483.145 53.24 485.785 51.96C488.425 50.68 491.505 50.04 495.025 50.04V64.2Z" fill="black"/>
<path d="M573.669 111H558.069V51.36H573.669V111ZM558.909 82.32L559.029 86.4C558.869 87.52 558.469 89.16 557.829 91.32C557.189 93.4 556.189 95.64 554.829 98.04C553.549 100.44 551.869 102.76 549.789 105C547.709 107.16 545.149 108.96 542.109 110.4C539.069 111.76 535.469 112.44 531.309 112.44C528.029 112.44 524.789 112.04 521.589 111.24C518.469 110.44 515.629 109.12 513.069 107.28C510.509 105.36 508.469 102.8 506.949 99.6C505.429 96.4 504.669 92.36 504.669 87.48V51.36H520.269V84.84C520.269 88.68 520.869 91.72 522.069 93.96C523.349 96.12 525.189 97.64 527.589 98.52C529.989 99.4 532.829 99.84 536.109 99.84C540.429 99.84 544.149 98.92 547.269 97.08C550.389 95.16 552.909 92.84 554.829 90.12C556.829 87.4 558.189 84.8 558.909 82.32Z" fill="black"/>
<path d="M585.472 91.2H599.872C600.752 93.92 602.552 96.16 605.272 97.92C608.072 99.6 611.712 100.44 616.192 100.44C619.232 100.44 621.592 100.16 623.272 99.6C624.952 99.04 626.112 98.24 626.752 97.2C627.392 96.08 627.712 94.84 627.712 93.48C627.712 91.8 627.192 90.52 626.152 89.64C625.112 88.68 623.512 87.92 621.352 87.36C619.192 86.8 616.432 86.28 613.072 85.8C609.712 85.24 606.472 84.56 603.352 83.76C600.232 82.96 597.472 81.92 595.072 80.64C592.672 79.28 590.752 77.6 589.312 75.6C587.952 73.52 587.272 71 587.272 68.04C587.272 65.16 587.952 62.6 589.312 60.36C590.752 58.12 592.712 56.24 595.192 54.72C597.752 53.2 600.712 52.04 604.072 51.24C607.512 50.44 611.192 50.04 615.112 50.04C621.032 50.04 625.952 50.92 629.872 52.68C633.792 54.36 636.712 56.76 638.632 59.88C640.632 62.92 641.632 66.44 641.632 70.44H627.832C627.192 67.48 625.912 65.36 623.992 64.08C622.072 62.72 619.112 62.04 615.112 62.04C611.192 62.04 608.232 62.64 606.232 63.84C604.232 65.04 603.232 66.68 603.232 68.76C603.232 70.44 603.832 71.76 605.032 72.72C606.312 73.6 608.152 74.32 610.552 74.88C613.032 75.44 616.112 76.04 619.792 76.68C622.912 77.32 625.872 78.04 628.672 78.84C631.552 79.64 634.112 80.68 636.352 81.96C638.592 83.16 640.352 84.8 641.632 86.88C642.992 88.88 643.672 91.44 643.672 94.56C643.672 98.4 642.552 101.64 640.312 104.28C638.152 106.92 635.032 108.96 630.952 110.4C626.872 111.76 621.992 112.44 616.312 112.44C611.272 112.44 606.912 111.92 603.232 110.88C599.632 109.76 596.632 108.36 594.232 106.68C591.832 104.92 589.952 103.08 588.592 101.16C587.312 99.16 586.432 97.28 585.952 95.52C585.472 93.76 585.312 92.32 585.472 91.2Z" fill="black"/>
<path d="M0 1.38337e-05V115H37.6941V88.8637C54.4471 88.8637 89 87.8182 89 43.9091C89 17.2365 73.2941 -4.26761e-05 37.6941 0L0 1.38337e-05Z" fill="#FFA62B"/>
<path d="M89 120.915V44.5352C80.5986 74.4272 66.8267 87.9156 37.5 88.32L37 160C72 160 89 132.5 89 120.915Z" fill="#FFC473"/>
</svg>
